# xmcd CD database file
#
# Track frame offsets:
#	150
#	10230
#	22850
#	35868
#	47373
#	59010
#	70574
#	82763
#	93108
#	105188
#	118601
#	132201
#
# Disc length: 1931 seconds
#
# Revision: 0
# Processed by: cddbd v1.5.2PL0 Copyright (c) Steve Scherf et al.
# Submitted via: CDex 1.51
#
DISCID=8507890c
DTITLE=John Lee Hooker - I'm John Lee Hooker
DYEAR=2007
DGENRE=Blues
TTITLE0=Dimples
TTITLE1=Hobo Blues
TTITLE2=I'm So Excited
TTITLE3=I Love You Honey
TTITLE4=Boogie Chillun
TTITLE5=Little Wheel
TTITLE6=I'm In The Mood
TTITLE7=Maudie
TTITLE8=Crawlin' King Snake
TTITLE9=Everynight
TTITLE10=Time Is Marching
TTITLE11=Baby Lee
EXTD=YEAR: 2007
EXTT0=
EXTT1=
EXTT2=
EXTT3=
EXTT4=
EXTT5=
EXTT6=
EXTT7=
EXTT8=
EXTT9=
EXTT10=
EXTT11=
PLAYORDER=
